<?xml version="1.0" encoding="UTF-8" standalone="no"?><!DOCTYPE svg PUBLIC "-//W3C//DTD SVG 1.1//EN" "http://www.w3.org/Graphics/SVG/1.1/DTD/svg11.dtd"><svg width="100%" height="100%" viewBox="0 0 1039 500" version="1.1" xmlns="http://www.w3.org/2000/svg" xmlns:xlink="http://www.w3.org/1999/xlink" xml:space="preserve" xmlns:serif="http://www.serif.com/" style="fill-rule:evenodd;clip-rule:evenodd;stroke-linecap:round;stroke-linejoin:round;stroke-miterlimit:1.5;"><ellipse cx="262.541" cy="248.919" rx="247.482" ry="243.677" style="fill:none;stroke:#000;stroke-opacity:0.98;stroke-width:8.33px;"/><ellipse cx="768.574" cy="251.97" rx="253.941" ry="243.031" style="fill:none;stroke:#000;stroke-width:8.33px;"/><ellipse cx="1022.976" cy="247.812" rx="11.522" ry="10.627" style="fill:#fff;stroke:#000;stroke-width:8.33px;"/><ellipse cx="15.689" cy="248.55" rx="11.522" ry="10.627" style="fill:#fff;stroke:#000;stroke-opacity:0.98;stroke-width:8.33px;"/><ellipse cx="514.171" cy="250.584" rx="11.522" ry="10.627" style="stroke:#000;stroke-opacity:0.98;stroke-width:8.33px;"/><g transform="matrix(0.997482,0,0,1,-0.54932,0)"><g transform="matrix(46.203694,0,0,46.203694,426.829352,33.208905)"></g><text x="401.133px" y="33.209px" style="font-family:'ArialMT', 'Arial', sans-serif;font-size:46.204px;">1</text></g><g transform="matrix(0.997482,0,0,1,-0.676973,-0)"><g transform="matrix(46.203694,0,0,46.203694,415.703786,423.489836)"></g><text x="390.007px" y="423.49px" style="font-family:'ArialMT', 'Arial', sans-serif;font-size:46.204px;">2</text></g><g transform="matrix(0.997482,0,0,1,-0.370606,0)"><g transform="matrix(46.203694,0,0,46.203694,644.915877,433.37753)"></g><text x="619.22px" y="433.378px" style="font-family:'ArialMT', 'Arial', sans-serif;font-size:46.204px;">3</text></g><g transform="matrix(0.997482,0,0,1,-0.649121,0)"><g transform="matrix(46.203694,0,0,46.203694,625.749936,36.187636)"></g><text x="600.054px" y="36.188px" style="font-family:'ArialMT', 'Arial', sans-serif;font-size:46.204px;">4</text></g></svg>