<?xml version="1.0" encoding="UTF-8" standalone="no"?><!DOCTYPE svg PUBLIC "-//W3C//DTD SVG 1.1//EN" "http://www.w3.org/Graphics/SVG/1.1/DTD/svg11.dtd"><svg width="100%" height="100%" viewBox="0 0 1039 524" version="1.1" xmlns="http://www.w3.org/2000/svg" xmlns:xlink="http://www.w3.org/1999/xlink" xml:space="preserve" xmlns:serif="http://www.serif.com/" style="fill-rule:evenodd;clip-rule:evenodd;stroke-linecap:round;stroke-linejoin:round;stroke-miterlimit:1.5;"><ellipse cx="262.541" cy="261.596" rx="247.482" ry="243.677" style="fill:none;stroke:#000;stroke-opacity:0.98;stroke-width:8.33px;"/><ellipse cx="768.574" cy="264.647" rx="253.941" ry="243.031" style="fill:none;stroke:#000;stroke-width:8.33px;"/><g transform="matrix(0.997482,0,0,1,-0.54932,0)"><g transform="matrix(46.203694,0,0,46.203694,426.829352,45.885305)"></g><text x="401.133px" y="45.885px" style="font-family:'ArialMT', 'Arial', sans-serif;font-size:46.204px;">1</text></g><g transform="matrix(0.997482,0,0,1,-0.676973,-0)"><g transform="matrix(46.203694,0,0,46.203694,415.703786,436.166236)"></g><text x="390.007px" y="436.166px" style="font-family:'ArialMT', 'Arial', sans-serif;font-size:46.204px;">2</text></g><g transform="matrix(0.997482,0,0,1,-0.370606,0)"><g transform="matrix(46.203694,0,0,46.203694,644.915877,446.05393)"></g><text x="619.22px" y="446.054px" style="font-family:'ArialMT', 'Arial', sans-serif;font-size:46.204px;">3</text></g><g transform="matrix(0.997482,0,0,1,-0.649121,0)"><g transform="matrix(46.203694,0,0,46.203694,625.749936,48.864036)"></g><text x="600.054px" y="48.864px" style="font-family:'ArialMT', 'Arial', sans-serif;font-size:46.204px;">4</text></g><ellipse cx="262.699" cy="259.619" rx="254.991" ry="252.327" style="fill:none;stroke:#d32f2f;stroke-opacity:0.98;stroke-width:14.58px;"/><ellipse cx="769.949" cy="263.034" rx="259.317" ry="253.022" style="fill:none;stroke:#d32f2f;stroke-width:14.58px;"/><ellipse cx="261.531" cy="259.945" rx="242.472" ry="239.829" style="fill:none;stroke:#388e3c;stroke-opacity:0.98;stroke-width:12.5px;"/><ellipse cx="768.56" cy="262.701" rx="245.928" ry="238.086" style="fill:none;stroke:#1976d2;stroke-width:14.58px;"/><ellipse cx="1022.976" cy="260.488" rx="11.522" ry="10.627" style="fill:#fff;stroke:#000;stroke-width:8.33px;"/><ellipse cx="15.689" cy="261.227" rx="11.522" ry="10.627" style="fill:#fff;stroke:#000;stroke-opacity:0.98;stroke-width:8.33px;"/><ellipse cx="514.902" cy="261.947" rx="18.252" ry="18.337" style="stroke:#000;stroke-opacity:0.98;stroke-width:8.33px;"/></svg>