<?xml version="1.0" encoding="UTF-8" standalone="no"?><!DOCTYPE svg PUBLIC "-//W3C//DTD SVG 1.1//EN" "http://www.w3.org/Graphics/SVG/1.1/DTD/svg11.dtd"><svg width="100%" height="100%" viewBox="0 0 464 417" version="1.1" xmlns="http://www.w3.org/2000/svg" xmlns:xlink="http://www.w3.org/1999/xlink" xml:space="preserve" xmlns:serif="http://www.serif.com/" style="fill-rule:evenodd;clip-rule:evenodd;stroke-linejoin:round;stroke-miterlimit:1.5;"><path d="M237.034,76.411l-190.167,288.424l373.79,3.518l-183.624,-291.942Z" style="fill:none;stroke:#000;stroke-width:8.33px;"/><ellipse cx="237.059" cy="80.241" rx="11.522" ry="10.627" style="stroke:#000;stroke-opacity:0.98;stroke-width:8.33px;stroke-linecap:round;"/><ellipse cx="53.929" cy="363.474" rx="11.522" ry="10.627" style="stroke:#000;stroke-opacity:0.98;stroke-width:8.33px;stroke-linecap:round;"/><ellipse cx="418.181" cy="363.265" rx="11.522" ry="10.627" style="stroke:#000;stroke-opacity:0.98;stroke-width:8.33px;stroke-linecap:round;"/><g transform="matrix(50,0,0,50,33.422852,403.68617)"></g><text x="0.073px" y="403.686px" style="font-family:'ArialMT', 'Arial', sans-serif;font-size:50px;">A</text><g transform="matrix(50,0,0,50,466.446781,411.60439)"></g><text x="433.097px" y="411.604px" style="font-family:'ArialMT', 'Arial', sans-serif;font-size:50px;">B</text><g transform="matrix(64.60755,0,0,64.60755,258.276004,47.036063)"></g><text x="211.619px" y="47.036px" style="font-family:'ArialMT', 'Arial', sans-serif;font-size:64.608px;">C</text><ellipse cx="147.617" cy="213.931" rx="11.522" ry="10.627" style="fill:#fff;stroke:#000;stroke-opacity:0.98;stroke-width:8.33px;stroke-linecap:round;"/><ellipse cx="324.615" cy="214.966" rx="11.522" ry="10.627" style="fill:#fff;stroke:#000;stroke-opacity:0.98;stroke-width:8.33px;stroke-linecap:round;"/><ellipse cx="239.999" cy="367.624" rx="11.522" ry="10.627" style="fill:#fff;stroke:#000;stroke-opacity:0.98;stroke-width:8.33px;stroke-linecap:round;"/><g transform="matrix(50,0,0,50,115.352188,412.012933)"></g><text x="87.545px" y="412.013px" style="font-family:'ArialMT', 'Arial', sans-serif;font-size:50px;">1</text><g transform="matrix(50,0,0,50,396.975784,416.923519)"></g><text x="369.168px" y="416.924px" style="font-family:'ArialMT', 'Arial', sans-serif;font-size:50px;">2</text><g transform="matrix(50,0,0,50,435.41382,329.277485)"></g><text x="407.606px" y="329.277px" style="font-family:'ArialMT', 'Arial', sans-serif;font-size:50px;">3</text><g transform="matrix(50,0,0,50,297.10032,113.612173)"></g><text x="269.293px" y="113.612px" style="font-family:'ArialMT', 'Arial', sans-serif;font-size:50px;">4</text><g transform="matrix(50,0,0,50,203.82606,115.001759)"></g><text x="176.018px" y="115.002px" style="font-family:'ArialMT', 'Arial', sans-serif;font-size:50px;">5</text><g transform="matrix(50,0,0,50,55.513994,341.079556)"></g><text x="27.706px" y="341.08px" style="font-family:'ArialMT', 'Arial', sans-serif;font-size:50px;">6</text></svg>