<?xml version="1.0" encoding="UTF-8" standalone="no"?><!DOCTYPE svg PUBLIC "-//W3C//DTD SVG 1.1//EN" "http://www.w3.org/Graphics/SVG/1.1/DTD/svg11.dtd"><svg width="100%" height="100%" viewBox="0 0 2323 502" version="1.1" xmlns="http://www.w3.org/2000/svg" xmlns:xlink="http://www.w3.org/1999/xlink" xml:space="preserve" xmlns:serif="http://www.serif.com/" style="fill-rule:evenodd;clip-rule:evenodd;stroke-linecap:round;stroke-linejoin:round;stroke-miterlimit:1.5;"><ellipse cx="1546.21949" cy="248.91916" rx="247.48221" ry="243.67673" style="fill:none;stroke:#000;stroke-opacity:0.98;stroke-width:8.33px;"/><ellipse cx="2052.25175" cy="251.97015" rx="253.94131" ry="243.03143" style="fill:none;stroke:#000;stroke-width:8.33px;"/><ellipse cx="2306.65394" cy="247.81182" rx="11.52184" ry="10.62685" style="fill:#fff;stroke:#000;stroke-width:8.33px;"/><ellipse cx="1299.36662" cy="248.55024" rx="11.52184" ry="10.62685" style="fill:#fff;stroke:#000;stroke-opacity:0.98;stroke-width:8.33px;"/><ellipse cx="1797.84956" cy="250.58404" rx="11.52184" ry="10.62685" style="stroke:#000;stroke-opacity:0.98;stroke-width:8.33px;"/><g transform="matrix(0.997482,0,0,1,2.682991,0)"><g transform="matrix(46.203694,0,0,46.203694,1710.507465,33.208905)"></g><text x="1684.81117px" y="33.2089px" style="font-family:'ArialMT', 'Arial', sans-serif;font-size:46.20369px;">1</text></g><g transform="matrix(0.997482,0,0,1,2.555338,-0)"><g transform="matrix(46.203694,0,0,46.203694,1699.381899,423.489836)"></g><text x="1673.68561px" y="423.48984px" style="font-family:'ArialMT', 'Arial', sans-serif;font-size:46.20369px;">2</text></g><g transform="matrix(0.997482,0,0,1,2.861705,0)"><g transform="matrix(46.203694,0,0,46.203694,1928.59399,433.37753)"></g><text x="1902.8977px" y="433.37753px" style="font-family:'ArialMT', 'Arial', sans-serif;font-size:46.20369px;">3</text></g><g transform="matrix(0.997482,0,0,1,2.58319,0)"><g transform="matrix(46.203694,0,0,46.203694,1909.428049,36.187636)"></g><text x="1883.73176px" y="36.18764px" style="font-family:'ArialMT', 'Arial', sans-serif;font-size:46.20369px;">4</text></g><ellipse cx="251.64888" cy="251.18765" rx="247.48221" ry="243.67673" style="fill:none;stroke:#000;stroke-opacity:0.98;stroke-width:8.33px;"/><ellipse cx="757.68114" cy="254.23864" rx="253.94131" ry="243.03143" style="fill:none;stroke:#000;stroke-width:8.33px;"/><ellipse cx="503.27895" cy="252.85253" rx="11.52184" ry="10.62685" style="stroke:#000;stroke-opacity:0.98;stroke-width:8.33px;"/><g><path d="M1048.00728,246.715l185.28755,-0.06329" style="fill:none;"/><path d="M1225.79057,234.15427l37.50427,12.48719l-37.49573,12.51281l-0.00854,-25Z" style="fill:#3200ff;"/><path d="M1048.00728,246.715l185.28755,-0.06329" style="fill:none;stroke:#3200ff;stroke-width:8.33px;stroke-linecap:butt;"/></g></svg>